# xmcd
#
# Track frame offsets:
#  150
#  13392
#  30696
#  48581
#  67628
#  94376
#  103349
#  117139
#  128018
#  148995
#  166213
#  179918
#  196314
#  215242
#  228770
#  242700
#  261234
#  278162
#  296465
#  314993
#
# Disc length: 4798 seconds
#
# Revision: 0
# Processed by: cddbd v1.5.1PL2 Copyright (c) Steve Scherf et al.
# Submitted via: Collectorz.com_Music_Collector 6.11
#
DISCID=3e12bc14
DTITLE=Marlena Shaw - Free Soul
DYEAR=2006
DGENRE=Blues - Soul
TTITLE0=California Soul
TTITLE1=The Feeling's Good
TTITLE2=Look At Me, Look At You
TTITLE3=Loving You Was Like A Party
TTITLE4=Woman Of The Ghetto
TTITLE5=Liberation Conversation
TTITLE6=Sweet Walkin' Woman
TTITLE7=The Song Is You
TTITLE8=You Are The Sunshine Of My Life
TTITLE9=Twisted
TTITLE10=Hum This Song
TTITLE11=Just Don't Want To Be Lonely
TTITLE12=Feel Like Makin' Love
TTITLE13=Say A Good Word
TTITLE14=You Been Away Too Long
TTITLE15=Rose Marie (Mon Cherie)
TTITLE16=Rhythm Of Love
TTITLE17=I'm Back For More
TTITLE18=Save The Children
TTITLE19=Woman Of The Ghetto (Live)
EXTD=
EXTT0=
EXTT1=
EXTT2=
EXTT3=
EXTT4=
EXTT5=
EXTT6=
EXTT7=
EXTT8=
EXTT9=
EXTT10=
EXTT11=
EXTT12=
EXTT13=
EXTT14=
EXTT15=
EXTT16=
EXTT17=
EXTT18=
EXTT19=
PLAYORDER=
